<svg xmlns="http://www.w3.org/2000/svg" viewBox="0 0 80 80" fill="none" stroke="currentColor" stroke-width="0.75" stroke-linecap="round" stroke-linejoin="round">
  <line x1="20" y1="8" x2="20" y2="72"/>
  <line x1="24" y1="8" x2="24" y2="72"/>
  <line x1="28" y1="8" x2="28" y2="72"/>
  <line x1="36" y1="8" x2="36" y2="72"/>
  <line x1="44" y1="8" x2="44" y2="72"/>
  <line x1="52" y1="8" x2="52" y2="72"/>
  <line x1="60" y1="8" x2="60" y2="72"/>
  <line x1="64" y1="8" x2="64" y2="72"/>
  <line x1="68" y1="8" x2="68" y2="72"/>
  <line x1="8" y1="20" x2="72" y2="20"/>
  <line x1="8" y1="24" x2="72" y2="24"/>
  <line x1="8" y1="28" x2="72" y2="28"/>
  <line x1="8" y1="36" x2="72" y2="36"/>
  <line x1="8" y1="44" x2="72" y2="44"/>
  <line x1="8" y1="52" x2="72" y2="52"/>
  <line x1="8" y1="60" x2="72" y2="60"/>
  <line x1="8" y1="64" x2="72" y2="64"/>
  <line x1="8" y1="68" x2="72" y2="68"/>
  <rect x="8" y="8" width="64" height="64" stroke-width="1.5"/>
  <line x1="24" y1="8" x2="24" y2="72" stroke-width="1.5"/>
  <line x1="40" y1="8" x2="40" y2="72" stroke-width="1.5"/>
  <line x1="56" y1="8" x2="56" y2="72" stroke-width="1.5"/>
  <line x1="8" y1="24" x2="72" y2="24" stroke-width="1.5"/>
  <line x1="8" y1="40" x2="72" y2="40" stroke-width="1.5"/>
  <line x1="8" y1="56" x2="72" y2="56" stroke-width="1.5"/>
</svg>
